<svg xmlns="http://www.w3.org/2000/svg" width="1024" height="1024" viewBox="0 0 1024 1024">
  <defs>
    <linearGradient id="g" x1="0%" y1="0%" x2="100%" y2="100%">
      <stop offset="0%" style="stop-color:#1a1816"/>
      <stop offset="100%" style="stop-color:#0a0908"/>
    </linearGradient>
  </defs>
  <rect width="1024" height="1024" rx="240" fill="url(#g)"/>
  <rect x="72" y="72" width="880" height="880" rx="200" fill="none" stroke="#2a2622" stroke-width="3"/>
  <path d="M340 400c0-66 60-120 134-120h76c74 0 134 54 134 120v160c0 80-64 140-150 140h-4c-86 0-150-60-150-140V400z" fill="none" stroke="#b8956a" stroke-width="48" stroke-linejoin="round"/>
  <line x1="512" y1="700" x2="512" y2="800" stroke="#8a7760" stroke-width="40" stroke-linecap="round"/>
  <line x1="400" y1="800" x2="624" y2="800" stroke="#8a7760" stroke-width="40" stroke-linecap="round"/>
  <path d="M320 500v70c0 100 80 180 192 180s192-80 192-180v-70" fill="none" stroke="#4a3d32" stroke-width="22" stroke-linecap="round" opacity="0.5"/>
</svg>
